<?xml version="1.0" encoding="UTF-8"?>
<svg xmlns="http://www.w3.org/2000/svg" viewBox="0 0 1024 1024" width="40" height="40">
  <path d="M360 184h-8c4.4 0 8-3.6 8-8v-40c0-44.2-35.8-80-80-80H248C203.8 60 168 95.8 168 140v40c0 4.4 3.6 8 8 8h-8c-4.4 0-8 3.6-8 8v48c0 4.4 3.6 8 8 8h640c4.4 0 8-3.6 8-8v-48c0-4.4-3.6-8-8-8h-8v-40c0-44.2-35.8-80-80-80H440c-44.2 0-80 35.8-80 80v40c0 4.4 3.6 8 8 8zM232 184h560v592c0 48.6-39.4 88-88 88H320c-48.6 0-88-39.4-88-88V184z" fill="#999999"/>
  <path d="M432 280h40c4.4 0 8-3.6 8-8v-40c0-44.2-35.8-80-80-80h-40c-4.4 0-8 3.6-8 8v40c0 44.2 35.8 80 80 80 4.4 0 8-3.6 8-8h-40c-4.4 0-8-3.6-8-8v-40h40v40c0 4.4 3.6 8 8 8z" fill="#999999"/>
</svg>