<svg xmlns="http://www.w3.org/2000/svg" viewBox="0 0 100 100" fill="none"><rect x="14" y="14" width="60" height="74" rx="16" fill="#e8b0df"/><rect x="12" y="10" width="60" height="74" rx="16" fill="url(#grad1)"/><circle cx="42" cy="38" r="11" fill="white" fill-opacity="0.8"/><path d="M26 64C26 55.1634 33.1634 48 42 48C50.8366 48 58 55.1634 58 64V68H26V64Z" fill="white" fill-opacity="0.8"/><circle cx="68" cy="68" r="14" fill="white"/><path d="M68 73.5l-.94-.85C63.72 69.61 61.5 67.61 61.5 65.15c0-2 1.57-3.57 3.57-3.57 1.13 0 2.21.53 2.93 1.36.72-.83 1.8-1.36 2.93-1.36 2 0 3.57 1.57 3.57 3.57 0 2.46-2.22 4.46-5.56 7.51l-.94.84z" fill="#ff5d93"/><defs><linearGradient id="grad1" x1="12" y1="10" x2="72" y2="84" gradientUnits="userSpaceOnUse"><stop offset="0%" stop-color="#fdd9ec"/><stop offset="100%" stop-color="#deb4f3"/></linearGradient></defs></svg>